#!OML:ASF F:\VICON\USERDATA\INSTALL\rory3\rory3.ASF
:FULLY-SPECIFIED
:DEGREES
119
root 3.00395 16.7366 -0.0382686 14.7664 4.33136 10.7025
lowerback -6.7494 1.7833 0.651858
upperback -2.1565 2.5237 -7.46318
thorax 1.92038 1.28114 -7.98963
lowerneck -2.58319 14.7161 5.1539
upperneck 47.2888 24.4777 -1.77187
head 19.9425 10.6695 2.37602
rclavicle 6.31141e-015 -1.98785e-014
rhumerus -36.1869 5.69936 -94.3946
rradius 42.6237
rwrist -36.5788
rhand -9.76746 -51.3108
rfingers 7.12502
rthumb 16.2076 -80.6532
lclavicle 6.31141e-015 -1.98785e-014
lhumerus -28.1207 -20.5474 82.386
lradius 41.8058
lwrist 72.8881
lhand -38.2324 -14.2091
lfingers 7.12502
lthumb -11.2634 15.4685
rfemur -50.3917 24.3923 -6.29561
rtibia 73.5915
rfoot 3.23475 10.2665
rtoes -40.8822
lfemur -31.7001 -6.22494 -36.3326
ltibia 38.386
lfoot -17.0259 11.1196
ltoes 3.8609
120
root 3.00272 16.7307 -0.0453327 14.8669 4.292 10.7114
lowerback -6.77864 1.86849 0.637329
upperback -2.23698 2.63712 -7.51508
thorax 1.8711 1.33624 -8.02734
lowerneck -2.3476 14.6129 5.32656
upperneck 47.2299 24.3107 -1.85471
head 19.8844 10.6408 2.25727
rclavicle 4.18442e-014 2.62396e-014
rhumerus -36.2642 5.41956 -94.3504
rradius 42.6151
rwrist -36.6724
rhand -9.99017 -50.9559
rfingers 7.12502
rthumb 15.9931 -80.3157
lclavicle 4.18442e-014 2.62396e-014
lhumerus -28.2104 -20.7538 82.457
lradius 41.8746
lwrist 72.8671
lhand -38.3249 -13.9187
lfingers 7.12502
lthumb -11.3527 15.754
rfemur -50.6032 24.3393 -6.37337
rtibia 73.6497
rfoot 3.37744 10.1338
rtoes -40.5335
lfemur -31.8755 -6.20243 -36.3366
ltibia 38.4133
lfoot -16.989 11.082
ltoes 3.87691
121
root 3.00773 16.7276 -0.0467981 14.9387 4.21065 10.7398
lowerback -6.86735 1.94809 0.637089
upperback -2.26903 2.74711 -7.57006
thorax 1.90589 1.39225 -8.07497
lowerneck -2.19974 14.51 5.4781
upperneck 47.2222 24.1736 -1.96323
head 19.8907 10.6068 2.15057
rclavicle 1.97791e-014 -2.0276e-014
rhumerus -36.2716 5.18427 -94.2852
rradius 42.6788
rwrist -36.6404
rhand -10.8429 -49.6631
rfingers 7.12502
rthumb 15.1718 -79.0869
lclavicle 1.97791e-014 -2.0276e-014
lhumerus -28.3462 -20.9347 82.5175
lradius 42.0408
lwrist 72.8409
lhand -37.9861 -14.2075
lfingers 7.12502
lthumb -11.0259 15.4829
rfemur -50.7328 24.2986 -6.48878
rtibia 73.6831
rfoot 3.34071 10.1354
rtoes -40.3391
lfemur -32.0027 -6.20598 -36.3959
ltibia 38.4874
lfoot -16.9744 11.1431
ltoes 3.89217
122
root 3.01185 16.7414 -0.0353966 14.4488 4.90802 10.9236
lowerback -6.57523 1.68818 0.531137
upperback -2.00633 2.40957 -7.52548
thorax 1.96088 1.22772 -7.99997
lowerneck -2.21015 14.5162 5.51959
upperneck 47.2409 24.2381 -2.07564
head 19.952 10.6213 2.11359
rclavicle -2.17172e-014 4.17448e-014
rhumerus -36.1961 5.19119 -94.1766
rradius 42.7492
rwrist -36.3681
rhand -11.1897 -48.8334
rfingers 7.12502
rthumb 14.8377 -78.2821
lclavicle -2.17172e-014 4.17448e-014
lhumerus -28.3537 -20.8254 82.5224
lradius 42.1783
lwrist 72.8831
lhand -38.2832 -13.8188
lfingers 7.12502
lthumb -11.3124 15.8561
rfemur -49.5601 24.0657 -6.04934
rtibia 73.6208
rfoot 3.00266 9.94912
rtoes -40.5814
lfemur -31.23 -6.59088 -36.5081
ltibia 38.4699
lfoot -16.9986 11.0619
ltoes 3.84183
123
root 3.01326 16.7298 -0.0503455 14.8492 4.31314 10.647
lowerback -6.87051 1.92808 0.647169
upperback -2.19671 2.72144 -7.48391
thorax 1.97552 1.38163 -7.98812
lowerneck -2.27267 14.4886 5.5113
upperneck 47.2966 24.2031 -2.05601
head 19.9988 10.6021 2.12889
rclavicle -1.90833e-014 4.6118e-014
rhumerus -36.2497 5.18446 -94.1169
rradius 42.8341
rwrist -36.2911
rhand -10.4168 -50.232
rfingers 7.12502
rthumb 15.5822 -79.6243
lclavicle -1.90833e-014 4.6118e-014
lhumerus -28.2621 -20.8343 82.5544
lradius 42.134
lwrist 72.894
lhand -38.672 -12.964
lfingers 7.12502
lthumb -11.6873 16.69
rfemur -50.5605 24.29 -6.29432
rtibia 73.6597
rfoot 3.0273 10.2014
rtoes -41.103
lfemur -31.939 -6.24013 -36.3083
ltibia 38.5496
lfoot -16.9231 11.1954
ltoes 4.01405
